<svg xmlns="http://www.w3.org/2000/svg" width="512" height="512" viewBox="0 0 512 512" fill="none">
  <defs>
    <linearGradient id="g" x1="96" y1="64" x2="416" y2="448" gradientUnits="userSpaceOnUse">
      <stop stop-color="#22c55e"/>
      <stop offset="1" stop-color="#15803d"/>
    </linearGradient>
  </defs>
  <rect x="48" y="48" width="416" height="416" rx="96" fill="#0a0a0a"/>
  <path d="M256 96c88.366 0 160 71.634 160 160s-71.634 160-160 160S96 344.366 96 256 167.634 96 256 96Z" fill="url(#g)" opacity="0.22"/>
  <path d="M256 126c71.797 0 130 58.203 130 130 0 71.797-58.203 130-130 130-71.797 0-130-58.203-130-130 0-71.797 58.203-130 130-130Z" stroke="#22c55e" stroke-width="20" opacity="0.55"/>
  <path d="M178 318c34-12 62-36 78-68 16 32 44 56 78 68" stroke="#e5e7eb" stroke-width="18" stroke-linecap="round" stroke-linejoin="round" opacity="0.9"/>
  <path d="M178 256c34-12 62-36 78-68 16 32 44 56 78 68" stroke="#e5e7eb" stroke-width="18" stroke-linecap="round" stroke-linejoin="round" opacity="0.6"/>
  <path d="M256 140v232" stroke="#22c55e" stroke-width="18" stroke-linecap="round" opacity="0.85"/>
  <circle cx="256" cy="256" r="16" fill="#e5e7eb"/>
</svg>

